<?xml version="1.0" encoding="UTF-8" standalone="no" ?>
<!DOCTYPE svg PUBLIC "-//W3C//DTD SVG 1.1//EN" "http://www.w3.org/Graphics/SVG/1.1/DTD/svg11.dtd">
<svg xmlns="http://www.w3.org/2000/svg" xmlns:xlink="http://www.w3.org/1999/xlink" version="1.1" width="640" height="640" viewBox="0 0 640 640" xml:space="preserve">
<desc>Created with Fabric.js 4.6.0</desc>
<defs>
</defs>
<g transform="matrix(2.19 0 0 2.19 304.27 315.94)" id="idsPpfsd67NeoFTuy9uSR"  >
<g style="" vector-effect="non-scaling-stroke"   >
		<g transform="matrix(1.59 -1.59 1.59 1.59 -2.5 0)" id="-MLbXL2iKN8SQGAWbF2XT"  >
<linearGradient id="SVGID_42" gradientUnits="userSpaceOnUse" gradientTransform="matrix(1 0 0 1 0 0)"  x1="0" y1="40" x2="80" y2="40">
<stop offset="0%" style="stop-color:#ffffff;stop-opacity: 1"/>
<stop offset="50%" style="stop-color:#7e7e7e;stop-opacity: 1"/>
<stop offset="100%" style="stop-color:#000000;stop-opacity: 1"/>
</linearGradient>
<filter id="SVGID_54" y="-23%" height="146%" x="-23%" width="146%" >
	<feGaussianBlur in="SourceAlpha" stdDeviation="1"></feGaussianBlur>
	<feOffset dx="0" dy="0" result="oBlur" ></feOffset>
	<feFlood flood-color="rgb(0,0,0)" flood-opacity="1"/>
	<feComposite in2="oBlur" operator="in" />
	<feMerge>
		<feMergeNode></feMergeNode>
		<feMergeNode in="SourceGraphic"></feMergeNode>
	</feMerge>
</filter>
<path style="stroke: none; stroke-width: 1; stroke-dasharray: none; stroke-linecap: butt; stroke-dashoffset: 0; stroke-linejoin: miter; stroke-miterlimit: 4; fill: url(#SVGID_42); fill-rule: nonzero; opacity: 1;filter: url(#SVGID_54);" vector-effect="non-scaling-stroke"  transform=" translate(-40, -40)" d="M 63.366 80 L 40 56.634 L 16.634 80 L 0 63.366 L 23.366 40 L 0 16.634 L 16.634 0 L 40 23.366 L 63.366 0 L 80 16.634 L 56.634 40 L 80 63.366 L 63.366 80 z" stroke-linecap="round" />
</g>
		<g transform="matrix(2.15 -2.15 2.15 2.15 0 0)" id="C07a41NKNdpPbEUsYa7-s"  >
<linearGradient id="SVGID_42" gradientUnits="userSpaceOnUse" gradientTransform="matrix(1 0 0 1 0 0)"  x1="0" y1="40" x2="80" y2="40">
<stop offset="0%" style="stop-color:#ffffff;stop-opacity: 1"/>
<stop offset="50%" style="stop-color:#7e7e7e;stop-opacity: 1"/>
<stop offset="100%" style="stop-color:#000000;stop-opacity: 1"/>
</linearGradient>
<filter id="SVGID_54" y="-23%" height="146%" x="-23%" width="146%" >
	<feGaussianBlur in="SourceAlpha" stdDeviation="1"></feGaussianBlur>
	<feOffset dx="0" dy="0" result="oBlur" ></feOffset>
	<feFlood flood-color="rgb(0,0,0)" flood-opacity="1"/>
	<feComposite in2="oBlur" operator="in" />
	<feMerge>
		<feMergeNode></feMergeNode>
		<feMergeNode in="SourceGraphic"></feMergeNode>
	</feMerge>
</filter>
<path style="stroke: none; stroke-width: 1; stroke-dasharray: none; stroke-linecap: butt; stroke-dashoffset: 0; stroke-linejoin: miter; stroke-miterlimit: 4; fill: url(#SVGID_42); fill-rule: nonzero; opacity: 1;filter: url(#SVGID_54);" vector-effect="non-scaling-stroke"  transform=" translate(-40, -40)" d="M 80 52.5 L 52.5 52.5 L 52.5 80 L 27.5 80 L 27.5 52.5 L 0 52.5 L 0 27.5 L 27.5 27.5 L 27.5 0 L 52.5 0 L 52.5 27.5 L 80 27.5 L 80 52.5 z" stroke-linecap="round" />
</g>
		<g transform="matrix(0.95 0 0 0.95 0 -6.01)" id="jqHZsF88Wm_3azhWENweJ"  >
<linearGradient id="SVGID_42" gradientUnits="userSpaceOnUse" gradientTransform="matrix(1 0 0 1 -40.5 -38.5)"  x1="0" y1="40" x2="80" y2="40">
<stop offset="0%" style="stop-color:#ffffff;stop-opacity: 1"/>
<stop offset="50%" style="stop-color:#7e7e7e;stop-opacity: 1"/>
<stop offset="100%" style="stop-color:#000000;stop-opacity: 1"/>
</linearGradient>
<filter id="SVGID_54" y="-23%" height="146%" x="-22%" width="144%" >
	<feGaussianBlur in="SourceAlpha" stdDeviation="1"></feGaussianBlur>
	<feOffset dx="0" dy="0" result="oBlur" ></feOffset>
	<feFlood flood-color="rgb(0,0,0)" flood-opacity="1"/>
	<feComposite in2="oBlur" operator="in" />
	<feMerge>
		<feMergeNode></feMergeNode>
		<feMergeNode in="SourceGraphic"></feMergeNode>
	</feMerge>
</filter>
<g style="filter: url(#SVGID_54);" vector-effect="non-scaling-stroke"   >
		<g transform="matrix(1 0 0 1 0 0)" id="dAwatuJR6jym_P-8ZrURi"  >
<path style="stroke: none; stroke-width: 1; stroke-dasharray: none; stroke-linecap: butt; stroke-dashoffset: 0; stroke-linejoin: miter; stroke-miterlimit: 4; fill: rgb(179,181,179); fill-rule: nonzero; opacity: 1;" vector-effect="non-scaling-stroke"  transform=" translate(-40, -40)" d="M 52.4 27 L 40 2 L 27.6 27 L 0 31 L 20 50.5 L 15.3 78 L 40 65 L 64.7 78 L 60 50.5 L 80 31 L 52.4 27 z" stroke-linecap="round" />
</g>
		<g transform="matrix(1 0 0 1 0 0.8)" id="I04HSbpvX_FNC_oLSqVSb"  >
<path style="stroke: none; stroke-width: 1; stroke-dasharray: none; stroke-linecap: butt; stroke-dashoffset: 0; stroke-linejoin: miter; stroke-miterlimit: 4; fill: rgb(255,255,255); fill-rule: nonzero; opacity: 1;" vector-effect="non-scaling-stroke"  transform=" translate(-40, -40.8)" d="M 50 30.3 L 40 10.1 L 30 30.3 L 7.7 33.5 L 23.8 49.2 L 20 71.4 L 40 61 L 60 71.5 L 56.2 49.3 L 72.30000000000001 33.599999999999994 L 50 30.3 z" stroke-linecap="round" />
</g>
		<g transform="matrix(1 0 0 1 0 2.3)" id="lRDngZFUXgGB6RaqSh0-0"  >
<path style="stroke: none; stroke-width: 1; stroke-dasharray: none; stroke-linecap: butt; stroke-dashoffset: 0; stroke-linejoin: miter; stroke-miterlimit: 4; fill: rgb(179,181,179); fill-rule: nonzero; opacity: 1;" vector-effect="non-scaling-stroke"  transform=" translate(-40, -42.3)" d="M 59 38 L 49.5 47.3 L 51.7 60.4 L 40 54.2 L 28.3 60.400000000000006 L 30.5 47.300000000000004 L 21 38 L 34.1 36.1 L 40 24.2 L 45.9 36.1 L 59 38 z" stroke-linecap="round" />
</g>
</g>
</g>
</g>
</g>
</svg>